#!OML:ASF F:\VICON\USERDATA\INSTALL\Justin_Nancy\Justin_Nancy.ASF
:FULLY-SPECIFIED
:DEGREES
202
root 0.78756 17.033 -16.4595 6.99205 -2.26562 -0.827283
lowerback 16.3222 -0.029351 1.49785
upperback 1.19128 0.490143 3.0934
thorax -7.90665 0.240188 2.35756
lowerneck -17.8626 -4.0916 -10.1152
upperneck 18.3462 -3.99409 5.2049
head 9.02089 -2.02573 2.926
rclavicle 1.49089e-014 2.54444e-014
rhumerus -27.6481 2.32977 -82.9894
rradius 62.7417
rwrist -3.84824
rhand -13.0377 14.0989
rfingers 7.12502
rthumb 13.0569 -15.4724
lclavicle 1.49089e-014 2.54444e-014
lhumerus -28.3812 0.950738 86.9751
lradius 56.9852
lwrist 6.56042
lhand -22.1067 24.3192
lfingers 7.12502
lthumb 4.30576 54.2554
rfemur -27.4039 -0.035661 19.428
rtibia 43.835
rfoot -18.4092 -5.03273
rtoes 5.84355
lfemur -28.4366 1.09363 -17.1285
ltibia 44.5409
lfoot -19.8222 4.80663
ltoes -3.25844
203
root 0.796253 16.9924 -16.5071 7.3876 -2.20698 -0.871958
lowerback 16.8583 -0.0453231 1.61584
upperback 1.22621 0.510556 3.11425
thorax -8.16687 0.246269 2.31326
lowerneck -18.0152 -4.06266 -10.1076
upperneck 18.1975 -3.94905 5.26744
head 8.99405 -1.99309 2.9499
rclavicle 1.07344e-014 3.89618e-014
rhumerus -27.1775 2.49445 -82.9488
rradius 63.4778
rwrist -3.86404
rhand -12.8673 14.2224
rfingers 7.12502
rthumb 13.2211 -15.3383
lclavicle 1.07344e-014 3.89618e-014
lhumerus -27.8749 0.759542 86.9687
lradius 57.5902
lwrist 6.76084
lhand -22.5221 22.974
lfingers 7.12502
lthumb 3.90461 52.9179
rfemur -28.5465 -0.158301 19.4735
rtibia 44.7831
rfoot -18.6036 -4.97403
rtoes 5.9929
lfemur -29.6175 1.16249 -17.0911
ltibia 45.3562
lfoot -19.8964 4.58652
ltoes -2.66856
204
root 0.803084 16.956 -16.556 7.67061 -2.05623 -0.733194
lowerback 17.4316 -0.110108 1.53895
upperback 1.3229 0.427562 3.11405
thorax -8.37812 0.209131 2.38171
lowerneck -17.8634 -3.98938 -10.1968
upperneck 17.7157 -3.86141 5.4276
head 8.79892 -1.93657 3.02837
rclavicle -1.59028e-015 -8.74653e-015
rhumerus -26.7328 2.90799 -82.9019
rradius 64.2
rwrist -3.95577
rhand -13.0584 14.4766
rfingers 7.12502
rthumb 13.0369 -15.096
lclavicle -1.59028e-015 -8.74653e-015
lhumerus -27.3001 0.646601 86.959
lradius 58.0903
lwrist 7.01806
lhand -23.1346 21.8967
lfingers 7.12502
lthumb 3.31316 51.8507
rfemur -29.5238 -0.428935 19.3412
rtibia 45.711
rfoot -18.7488 -4.95856
rtoes 6.54522
lfemur -30.6959 1.13436 -17.259
ltibia 46.1411
lfoot -19.9145 4.49594
ltoes -2.69417
205
root 0.809553 16.9131 -16.6054 7.89807 -1.88371 -0.675979
lowerback 18.1419 -0.145258 1.59971
upperback 1.45795 0.409701 3.06787
thorax -8.62274 0.197302 2.30789
lowerneck -18.0576 -3.98615 -10.0559
upperneck 17.3892 -3.87437 5.46988
head 8.72018 -1.92133 3.01346
rclavicle -5.56597e-015 -2.70347e-014
rhumerus -26.3055 3.14106 -82.8832
rradius 65.0188
rwrist -4.22329
rhand -13.1785 14.5486
rfingers 7.12502
rthumb 12.9211 -15.0314
lclavicle -5.56597e-015 -2.70347e-014
lhumerus -26.4536 0.376697 86.8546
lradius 58.3628
lwrist 7.1016
lhand -23.4008 20.7017
lfingers 7.12502
lthumb 3.05603 50.6595
rfemur -30.4471 -0.71111 19.3099
rtibia 46.6173
rfoot -18.8992 -4.94308
rtoes 6.76339
lfemur -31.6554 1.06303 -17.326
ltibia 46.9542
lfoot -20.041 4.41297
ltoes -2.7581
206
root 0.815636 16.8693 -16.653 8.26958 -1.85442 -0.739743
lowerback 18.6925 -0.0976538 1.80673
upperback 1.63253 0.522033 3.00069
thorax -8.73634 0.24137 2.09156
lowerneck -18.5203 -4.08331 -9.86544
upperneck 17.1457 -4.00286 5.46223
head 8.72487 -1.95975 2.95637
rclavicle 6.75868e-015 1.43125e-014
rhumerus -25.6604 3.10558 -82.8765
rradius 65.678
rwrist -4.46237
rhand -13.0974 14.7286
rfingers 7.12502
rthumb 12.9993 -14.8464
lclavicle 6.75868e-015 1.43125e-014
lhumerus -25.4032 -0.0843604 86.7629
lradius 58.5082
lwrist 7.05243
lhand -23.4841 18.3356
lfingers 7.12502
lthumb 2.97559 48.2946
rfemur -31.592 -0.814946 19.3965
rtibia 47.5169
rfoot -18.9983 -4.96482
rtoes 6.36968
lfemur -32.7189 1.11841 -17.2703
ltibia 47.7989
lfoot -20.2062 4.31957
ltoes -2.34783
207
root 0.826587 16.8277 -16.6974 8.67187 -1.85902 -0.719772
lowerback 19.2235 -0.124569 1.86154
upperback 1.69361 0.516939 3.00979
thorax -8.96147 0.236676 2.07639
lowerneck -18.444 -4.10178 -10.0192
upperneck 16.7944 -4.00902 5.58592
head 8.59825 -1.95653 3.02064
rclavicle 2.78299e-015 0
rhumerus -25.118 3.45522 -82.8438
rradius 66.1394
rwrist -4.63629
rhand -13.9178 15.1103
rfingers 7.12502
rthumb 12.2083 -14.5134
lclavicle 2.78299e-015 0
lhumerus -24.9648 -0.224327 86.7249
lradius 59.0733
lwrist 6.94366
lhand -23.7198 17.9127
lfingers 7.12502
lthumb 2.74795 47.8748
rfemur -32.7492 -0.975124 19.3719
rtibia 48.4162
rfoot -19.1434 -4.94674
rtoes 5.77683
lfemur -33.8539 1.1919 -17.3515
ltibia 48.6702
lfoot -20.3233 4.32362
ltoes -1.93026
208
root 0.836486 16.7859 -16.7464 9.03187 -1.71977 -0.498163
lowerback 19.9634 -0.208317 1.73781
upperback 1.67921 0.407075 2.98815
thorax -9.38274 0.188918 2.16247
lowerneck -18.2743 -4.03199 -10.0922
upperneck 16.4079 -3.90544 5.61375
head 8.43074 -1.90728 3.05363
rclavicle 6.36111e-015 -1.59028e-014
rhumerus -24.5997 3.74377 -82.7906
rradius 66.4749
rwrist -4.39774
rhand -15.3515 15.6175
rfingers 7.12502
rthumb 10.8257 -14.0835
lclavicle 6.36111e-015 -1.59028e-014
lhumerus -24.6806 -0.293047 86.6548
lradius 59.7169
lwrist 6.85432
lhand -23.6912 19.4874
lfingers 7.12502
lthumb 2.77561 49.4491
rfemur -33.8328 -1.21238 19.125
rtibia 49.3375
rfoot -19.3265 -4.94573
rtoes 5.18701
lfemur -34.9846 1.10967 -17.6347
ltibia 49.5208
lfoot -20.5103 4.26781
ltoes -2.00264
209
root 0.844398 16.7389 -16.8 9.43012 -1.61444 -0.48287
lowerback 20.7533 -0.247971 1.78855
upperback 1.71337 0.396793 3.00417
thorax -9.77866 0.182482 2.16424
lowerneck -18.4074 -3.96861 -9.92884
upperneck 16.0612 -3.81259 5.4836
head 8.32272 -1.86022 2.99044
rclavicle 7.95139e-016 5.00937e-014
rhumerus -24.0167 3.90494 -82.741
rradius 66.775
rwrist -4.36627
rhand -15.6331 15.9382
rfingers 7.12502
rthumb 10.5541 -13.7768
lclavicle 7.95139e-016 5.00937e-014
lhumerus -23.9207 -0.48138 86.615
lradius 59.9872
lwrist 6.69611
lhand -23.7714 21.2366
lfingers 7.12502
lthumb 2.69813 51.1993
rfemur -35.0115 -1.39254 19.1598
rtibia 50.2733
rfoot -19.3253 -5.14477
rtoes 4.10437
lfemur -36.1505 1.06477 -17.6698
ltibia 50.3463
lfoot -20.5827 4.22938
ltoes -2.11427
210
root 0.853639 16.6906 -16.8579 9.8775 -1.45966 -0.441142
lowerback 21.4697 -0.301405 1.82959
upperback 1.81197 0.365163 3.04935
thorax -10.061 0.166988 2.20854
lowerneck -18.7181 -3.98599 -9.94282
upperneck 15.7165 -3.78858 5.47676
head 8.25857 -1.84164 2.9881
rclavicle 7.15625e-015 3.97569e-015
rhumerus -23.319 4.22458 -82.6088
rradius 67.1468
rwrist -4.77924
rhand -14.7693 15.8214
rfingers 7.12502
rthumb 11.3873 -13.8494
lclavicle 7.15625e-015 3.97569e-015
lhumerus -23.1156 -0.720686 86.6379
lradius 60.36
lwrist 6.42162
lhand -24.1878 21.649
lfingers 7.12502
lthumb 2.29598 51.6164
rfemur -36.2739 -1.62922 19.1792
rtibia 51.2247
rfoot -19.2621 -5.37063
rtoes 3.42331
lfemur -37.392 0.953439 -17.7242
ltibia 51.1557
lfoot -20.6229 4.08526
ltoes -1.92297
211
root 0.863552 16.6472 -16.9082 10.3708 -1.30395 -0.21636
lowerback 22.0146 -0.325947 1.77809
upperback 1.97946 0.332469 3.02109
thorax -10.1703 0.153045 2.22153
lowerneck -19.1398 -4.07208 -10.025
upperneck 15.4362 -3.8348 5.49748
head 8.24295 -1.85671 2.99675
rclavicle 1.59028e-015 -1.74931e-014
rhumerus -22.5612 4.29841 -82.3941
rradius 67.6195
rwrist -4.57979
rhand -14.3664 15.5873
rfingers 7.12502
rthumb 11.7758 -14.0616
lclavicle 1.59028e-015 -1.74931e-014
lhumerus -22.4133 -1.03375 86.6309
lradius 60.7579
lwrist 6.31416
lhand -25.2253 20.3144
lfingers 7.12502
lthumb 1.29394 50.2903
rfemur -37.5367 -1.89431 18.93
rtibia 52.1727
rfoot -19.4413 -5.16948
rtoes 4.39942
lfemur -38.6099 0.877538 -18.0183
ltibia 51.9578
lfoot -20.7545 3.90204
ltoes -1.79419
212
root 0.872571 16.6012 -16.9533 10.899 -1.18247 -0.169874
lowerback 22.4048 -0.344947 1.92351
upperback 2.20966 0.343635 2.96755
thorax -10.1234 0.150237 2.0766
lowerneck -19.4804 -4.10962 -9.86836
upperneck 15.0272 -3.87778 5.47146
head 8.16302 -1.86038 2.95092
rclavicle -3.97569e-016 -9.54166e-015
rhumerus -21.8279 4.10765 -82.2611
rradius 68.1662
rwrist -3.9873
rhand -14.2364 15.1156
rfingers 7.12502
rthumb 11.9011 -14.5261
lclavicle -3.97569e-016 -9.54166e-015
lhumerus -21.5831 -1.33649 86.4525
lradius 60.8835
lwrist 6.34331
lhand -25.5919 19.2321
lfingers 7.12502
lthumb 0.939945 49.2098
rfemur -38.7919 -2.02427 18.8617
rtibia 53.0701
rfoot -19.7291 -5.08027
rtoes 4.9616
lfemur -39.8611 0.836127 -18.1221
ltibia 52.7867
lfoot -20.8437 3.9285
ltoes -2.11727
213
root 0.879883 16.5532 -17.0065 11.4536 -1.09873 -0.237275
lowerback 22.8441 -0.367166 2.03043
upperback 2.41882 0.355238 3.0107
thorax -10.1266 0.151859 2.06215
lowerneck -19.6496 -4.08886 -9.69242
upperneck 14.4486 -3.84797 5.37859
head 7.98918 -1.83629 2.88928
rclavicle 5.56597e-015 -4.77083e-015
rhumerus -21.1394 4.29053 -82.1556
rradius 68.4657
rwrist -4.5847
rhand -14.3497 15.4197
rfingers 7.12502
rthumb 11.7919 -14.2284
lclavicle 5.56597e-015 -4.77083e-015
lhumerus -20.6437 -1.43341 86.3752
lradius 60.9579
lwrist 6.31899
lhand -24.9982 19.5736
lfingers 7.12502
lthumb 1.5133 49.548
rfemur -40.1241 -2.11911 18.9799
rtibia 53.932
rfoot -19.7944 -5.25996
rtoes 3.9108
lfemur -41.1895 0.793153 -18.0629
ltibia 53.5998
lfoot -20.8957 3.87405
ltoes -1.95295
